<svg width="30" height="30" viewBox="0 0 30 30" fill="none" xmlns="http://www.w3.org/2000/svg">
<mask id="mask0_20_27" style="mask-type:alpha" maskUnits="userSpaceOnUse" x="0" y="0" width="30" height="30">
<rect width="30" height="30" fill="#C4C4C4"/>
</mask>
<g mask="url(#mask0_20_27)">
<path d="M4.63226 11.5606L12.6323 4.2118C13.9712 2.98188 16.0288 2.98188 17.3677 4.2118L25.3677 11.5606C26.0893 12.2234 26.5 13.1583 26.5 14.1381V25C26.5 26.933 24.933 28.5 23 28.5H21.8233C20.3193 28.5 19.1 27.2807 19.1 25.7767V24.1534C19.1 21.889 17.2644 20.0534 15 20.0534C12.7356 20.0534 10.9 21.889 10.9 24.1534V25.7767C10.9 27.2807 9.68074 28.5 8.1767 28.5H7C5.06701 28.5 3.5 26.933 3.5 25V14.1381C3.5 13.1583 3.9107 12.2234 4.63226 11.5606Z" stroke="black" stroke-width="3"/>
</g>
</svg>
