<svg width="61" height="71" viewBox="0 0 61 71" fill="none" xmlns="http://www.w3.org/2000/svg">
<path d="M18.5849 49.3855L10.6241 41.4281C8.65124 39.4561 5.45256 39.4561 3.47968 41.4281C1.50679 43.4002 1.50679 46.5975 3.47968 48.5695L17.2071 62.2909C21.6465 66.6262 24.249 68.9215 30.6788 68.9215C42.4664 68.9215 59 70.5542 59 58.9244V35.512C59 32.7231 56.7382 30.4622 53.9481 30.4622C51.158 30.4622 48.8962 32.7231 48.8962 35.512C48.8962 32.7231 46.6344 30.4622 43.8443 30.4622C41.0542 30.4622 38.7925 32.7231 38.7925 35.512C38.7925 32.7231 36.5307 30.4622 33.7406 30.4622C30.9505 30.4622 28.6887 32.7231 28.6887 35.512V7.04975C28.6887 4.26085 26.4269 2 23.6368 2C20.8467 2 18.5849 4.26085 18.5849 7.04975V49.3855ZM18.5849 49.3855L23.6368 54.4353" stroke="black" stroke-width="3" stroke-linecap="round" stroke-linejoin="round"/>
</svg>
